<svg width="32" height="32" viewBox="0 0 32 32" fill="none" xmlns="http://www.w3.org/2000/svg">
<path d="M19.625 24.4162L15.625 30.4162C15.5146 30.582 15.3428 30.6971 15.1476 30.7363C14.9523 30.7754 14.7495 30.7354 14.5837 30.625C14.4179 30.5146 14.3028 30.3429 14.2637 30.1476C14.2245 29.9523 14.2646 29.7495 14.375 29.5837L18.375 23.5837C18.4854 23.418 18.6571 23.3029 18.8523 23.2637C19.0476 23.2246 19.2504 23.2646 19.4162 23.375C19.582 23.4854 19.6971 23.6571 19.7362 23.8524C19.7754 24.0476 19.7354 24.2505 19.625 24.4162ZM28.75 11.5C28.747 13.9523 27.7715 16.3034 26.0374 18.0374C24.3033 19.7715 21.9523 20.747 19.5 20.75H16.4012L12.625 26.4162C12.5703 26.4983 12.5 26.5688 12.4181 26.6237C12.3362 26.6786 12.2443 26.7169 12.1476 26.7363C12.0509 26.7556 11.9513 26.7558 11.8546 26.7367C11.7578 26.7176 11.6658 26.6796 11.5837 26.625C11.5016 26.5703 11.4311 26.5 11.3762 26.4181C11.3213 26.3362 11.2831 26.2443 11.2637 26.1476C11.2443 26.0509 11.2441 25.9513 11.2632 25.8546C11.2823 25.7578 11.3203 25.6658 11.375 25.5837L14.5987 20.75H9.49996C8.62785 20.7456 7.76631 20.5587 6.97076 20.2013C6.17521 19.844 5.46325 19.3241 4.88066 18.6751C4.29808 18.0261 3.85777 17.2624 3.58804 16.433C3.31831 15.6037 3.22515 14.727 3.31453 13.8595C3.40391 12.992 3.67386 12.1528 4.10703 11.3958C4.54019 10.6389 5.12698 9.98096 5.82965 9.46439C6.53232 8.94782 7.33533 8.58403 8.18703 8.39641C9.03873 8.20878 9.92027 8.20148 10.775 8.37498C11.5118 6.32326 12.9489 4.59729 14.8332 3.50099C16.7175 2.40468 18.9282 2.00834 21.076 2.38174C23.2239 2.75514 25.1711 3.87435 26.5748 5.54229C27.9785 7.21023 28.7488 9.31995 28.75 11.5ZM27.25 11.5C27.2434 9.48647 26.4542 7.55439 25.0492 6.11211C23.6442 4.66983 21.7334 3.83035 19.7207 3.77111C17.7081 3.71187 15.7513 4.4375 14.2638 5.79464C12.7764 7.15178 11.8749 9.03409 11.75 11.0437C11.7384 11.2426 11.6482 11.4288 11.4994 11.5612C11.3505 11.6937 11.1551 11.7616 10.9562 11.75C10.7573 11.7384 10.5711 11.6482 10.4387 11.4994C10.3062 11.3505 10.2384 11.1551 10.25 10.9562C10.2721 10.5789 10.3167 10.2032 10.3837 9.83123C9.73457 9.70961 9.0672 9.72468 8.42422 9.8755C7.78123 10.0263 7.17677 10.3096 6.64942 10.7072C6.12207 11.1047 5.68342 11.6079 5.36149 12.1846C5.03956 12.7612 4.84142 13.3987 4.77972 14.0562C4.71803 14.7138 4.79413 15.377 5.00317 16.0035C5.21221 16.6299 5.5496 17.2059 5.99379 17.6947C6.43797 18.1834 6.9792 18.5742 7.5829 18.842C8.18661 19.1098 8.83952 19.2487 9.49996 19.25H19.5C21.5547 19.2477 23.5246 18.4304 24.9775 16.9775C26.4304 15.5246 27.2476 13.5547 27.25 11.5Z" fill="#3B3B55"/>
</svg>
